:version 1.10
:name ASF
:units
  mass 1
  length 1
  angle deg
:documentation
  ASF file generated by Kaydara
:root
  axis xyz
  order  tx ty tz rx ry rz
  position 0 0 0
  orientation 0 0 0
:bonedata
  begin
    id 1
    name lowerbackDummy
    direction 0 0 0
    length 0
    axis 0 -0 0 xyz
  end
  begin
    id 2
    name lowerback
    direction 0.0149039 0.998517 -0.0523597
    length 4.68464
    axis 0 -0 0 xyz
    dof rx ry rz
    limits( -inf , inf )
( -inf , inf )
( -inf , inf )

  end
  begin
    id 3
    name upperback
    direction -0.00882659 0.999418 -0.0329624
    length 4.68933
    axis 0 -0 0 xyz
    dof rx ry rz
    limits( -inf , inf )
( -inf , inf )
( -inf , inf )

  end
  begin
    id 4
    name thorax
    direction -0.0165585 0.999826 -0.0085833
    length 4.68976
    axis 0 -0 0 xyz
    dof rx ry rz
    limits( -inf , inf )
( -inf , inf )
( -inf , inf )

  end
  begin
    id 5
    name lowerneck
    direction -0.0130877 0.999911 0.00260353
    length 3.85007
    axis 0 -0 0 xyz
    dof rx ry rz
    limits( -inf , inf )
( -inf , inf )
( -inf , inf )

  end
  begin
    id 6
    name upperneck
    direction -0.0348454 0.928205 -0.370435
    length 3.70427
    axis 0 -0 0 xyz
    dof rx ry rz
    limits( -inf , inf )
( -inf , inf )
( -inf , inf )

  end
  begin
    id 7
    name head
    direction 0 0 0
    length 0
    axis 0 0 0 xyz
    dof rx ry rz
    limits( -inf , inf )
( -inf , inf )
( -inf , inf )

  end
  begin
    id 8
    name lclavicle
    direction 0.987582 0.144023 0.0627671
    length 7.76078
    axis 0 -0 0 xyz
    dof rx ry rz
    limits( -inf , inf )
( -inf , inf )
( -inf , inf )

  end
  begin
    id 9
    name lhumerus
    direction 1 -4.48958e-011 -1.45183e-018
    length 12.0426
    axis 180 -30 -90 xyz
    dof rx ry rz
    limits( -inf , inf )
( -inf , inf )
( -inf , inf )

  end
  begin
    id 10
    name lradius
    direction 1 -4.48999e-011 3.74805e-027
    length 5.43051
    axis 180 -30 -90 xyz
    dof rz ry rx
    limits( -inf , inf )
( -inf , inf )
( -inf , inf )

  end
  begin
    id 11
    name lwrist
    direction 1 -4.48988e-011 -4.48237e-017
    length 2.71524
    axis -90 90 0 xyz
    dof rz rx ry
    limits( -inf , inf )
( -inf , inf )
( -inf , inf )

  end
  begin
    id 12
    name lhand
    direction 1 -4.48882e-011 -4.48237e-017
    length 1.61667
    axis -90 90 0 xyz
    dof ry rx rz
    limits( -inf , inf )
( -inf , inf )
( -inf , inf )

  end
  begin
    id 13
    name lfingers
    direction 0 0 0
    length 0
    axis 0 0 0 xyz
    dof rz ry rx
    limits( -inf , inf )
( -inf , inf )
( -inf , inf )

  end
  begin
    id 14
    name lthumb
    direction 0 0 0
    length 0
    axis 0 0 0 xyz
    dof ry rx rz
    limits( -inf , inf )
( -inf , inf )
( -inf , inf )

  end
  begin
    id 15
    name rclavicle
    direction -0.980998 0.169556 0.0943023
    length 7.31716
    axis 0 -0 0 xyz
    dof rx ry rz
    limits( -inf , inf )
( -inf , inf )
( -inf , inf )

  end
  begin
    id 16
    name rhumerus
    direction -1 -1.83355e-005 2.45537e-005
    length 12.4217
    axis 180 30 90 xyz
    dof rx ry rz
    limits( -inf , inf )
( -inf , inf )
( -inf , inf )

  end
  begin
    id 17
    name rradius
    direction -1 -4.48967e-011 0
    length 5.51244
    axis 180 30 90 xyz
    dof rz ry rx
    limits( -inf , inf )
( -inf , inf )
( -inf , inf )

  end
  begin
    id 18
    name rwrist
    direction -1 -4.48964e-011 -4.48237e-017
    length 2.75622
    axis -90 -90 0 xyz
    dof rz rx ry
    limits( -inf , inf )
( -inf , inf )
( -inf , inf )

  end
  begin
    id 19
    name rhand
    direction -1 -4.48882e-011 -4.48237e-017
    length 1.81335
    axis -90 -90 0 xyz
    dof ry rx rz
    limits( -inf , inf )
( -inf , inf )
( -inf , inf )

  end
  begin
    id 20
    name rfingers
    direction 0 0 0
    length 0
    axis 0 0 0 xyz
    dof rz ry rx
    limits( -inf , inf )
( -inf , inf )
( -inf , inf )

  end
  begin
    id 21
    name rthumb
    direction 0 0 0
    length 0
    axis 0 0 0 xyz
    dof ry rx rz
    limits( -inf , inf )
( -inf , inf )
( -inf , inf )

  end
  begin
    id 22
    name rfemurDummy
    direction -0.640058 -0.688614 0.340788
    length 5.51442
    axis 0 -0 0 xyz
  end
  begin
    id 23
    name rfemur
    direction -0.34202 -0.939693 0
    length 14.6194
    axis 0 -0 -20 xyz
    dof rx ry rz
    limits( -inf , inf )
( -inf , inf )
( -inf , inf )

  end
  begin
    id 24
    name rtibia
    direction -0.34202 -0.939693 0
    length 17.7267
    axis 0 -0 -20 xyz
    dof rz ry rx
    limits( -inf , inf )
( -inf , inf )
( -inf , inf )

  end
  begin
    id 25
    name rfoot
    direction -0.0979793 -0.269196 0.958089
    length 4.88571
    axis -90 -7.62852e-016 -20 xyz
    dof ry rx rz
    limits( -inf , inf )
( -inf , inf )
( -inf , inf )

  end
  begin
    id 26
    name rtoes
    direction 0 0 0
    length 0
    axis 0 0 0 xyz
    dof rz ry rx
    limits( -inf , inf )
( -inf , inf )
( -inf , inf )

  end
  begin
    id 27
    name lfemurDummy
    direction 0.653368 -0.678499 0.335782
    length 5.59662
    axis 0 -0 0 xyz
  end
  begin
    id 28
    name lfemur
    direction 0.34202 -0.939693 0
    length 14.6166
    axis 0 -0 20 xyz
    dof rx ry rz
    limits( -inf , inf )
( -inf , inf )
( -inf , inf )

  end
  begin
    id 29
    name ltibia
    direction 0.34202 -0.939693 0
    length 17.6582
    axis 0 -0 20 xyz
    dof rz ry rx
    limits( -inf , inf )
( -inf , inf )
( -inf , inf )

  end
  begin
    id 30
    name lfoot
    direction 0.0811271 -0.222895 0.971461
    length 5.14087
    axis -90 7.62852e-016 20 xyz
    dof ry rx rz
    limits( -inf , inf )
( -inf , inf )
( -inf , inf )

  end
  begin
    id 31
    name ltoes
    direction 0 0 0
    length 0
    axis 0 0 0 xyz
    dof rz ry rx
    limits( -inf , inf )
( -inf , inf )
( -inf , inf )

  end
:hierarchy
  begin
    root lowerbackDummy rfemurDummy lfemurDummy
    lowerbackDummy lowerback
    lowerback upperback
    upperback thorax
    thorax lowerneck lclavicle rclavicle
    lowerneck upperneck
    upperneck head
    lclavicle lhumerus
    lhumerus lradius
    lradius lwrist
    lwrist lhand lthumb
    lhand lfingers
    rclavicle rhumerus
    rhumerus rradius
    rradius rwrist
    rwrist rhand rthumb
    rhand rfingers
    rfemurDummy rfemur
    rfemur rtibia
    rtibia rfoot
    rfoot rtoes
    lfemurDummy lfemur
    lfemur ltibia
    ltibia lfoot
    lfoot ltoes
  end

:SAMPLES-PER-SECOND 30
:FULLY-SPECIFIED
:DEGREES
117
root  1.026546674 36.88799941 -17.32844405 8.148610115 -1.191249967 -2.739370108
lowerback  -2.531409979 1.477570057 2.542279959
upperback  -1.507570028 1.914360046 1.938830018
thorax  -0.1104770005 0.9493899941 0.6084280014
lowerneck  -17.02700043 0.09949050099 -0.7679859996
upperneck  42.0401001 1.756909966 -2.73187995
head  18.9015007 0.2046460062 -0.8111590147
lclavicle  0 5.864150125e-015 -2.067359921e-014
lhumerus  -42.04840088 21.72870064 62.04669952
lradius  -2.45533166e-031 -2.537753037e-031 45.9457016
lwrist  -7.062250077e-031 -0 2.209840059
lhand  -7.079005822e-031 -3.942929983 20.9965992
lfingers  90 7.125020027 -90
lthumb  91.7822942 4.444415463 68.12203401
rclavicle  0 5.864150125e-015 -2.067359921e-014
rhumerus  -41.77489853 -14.09529972 -69.72450256
rradius  3.264990521e-031 1.34487209e-031 22.38710022
rwrist  3.531125038e-031 -3.531125038e-031 -3.878979921
rhand  -3.560974149e-031 -7.42373991 12.46170044
rfingers  -90 -7.125020027 -90
rthumb  -80.31568891 -26.74034464 -69.22981514
rfemur  -34.26169968 15.98579979 20.98060036
rtibia  -0 0 31.4260006
rfoot  -0 -12.1388998 -17.89780045
rtoes  4.116659007 19.5887426 -102.1160506
lfemur  2.480619907 -3.411799908 -21.73740005
ltibia  -0 0 33.23970032
lfoot  -0 -11.00220013 22.04940033
ltoes  1.951177072 -19.90847515 -84.28677945
118
root  0.9742888879 36.88955532 -16.9653104 8.121999741 -1.255599976 -2.743000031
lowerback  -2.505249977 1.501899958 2.652780056
upperback  -1.691689968 1.951490045 1.900370002
thorax  -0.3087950051 0.964492023 0.5044900179
lowerneck  -16.48740005 0.1127469987 -0.8120689988
upperneck  42.07139969 1.746760011 -2.647429943
head  18.76740074 0.2099100053 -0.7635139823
lclavicle  0 5.864150125e-015 -2.067359921e-014
lhumerus  -43.18790054 22.35379982 61.34840012
lradius  -2.484352809e-031 -2.509349549e-031 45.28680038
lwrist  -7.062250077e-031 -0 2.20175004
lhand  -7.083393101e-031 -4.428009987 21.14769936
lfingers  90 7.125020027 -90
lthumb  91.82093924 4.649139902 68.58317585
rclavicle  0 5.864150125e-015 -2.067359921e-014
rhumerus  -42.15589905 -14.06449986 -69.58789825
rradius  3.258737791e-031 1.359952957e-031 22.65200043
rwrist  1.059337512e-030 -3.531125038e-031 -4.19686985
rhand  -3.559503219e-031 -7.239759922 12.77970028
rfingers  -90 -7.125020027 -90
rthumb  -80.09337662 -27.0230064 -68.97372348
rfemur  -33.74539948 15.7656002 21.35740089
rtibia  -0 0 31.81299973
rfoot  -0 -12.53520012 -17.4442997
rtoes  4.178927492 19.57604878 -102.3018367
lfemur  1.127189994 -2.773260117 -21.56739998
ltibia  -0 0 36.0237999
lfoot  -0 -5.217060089 23.04560089
ltoes  2.208114197 -19.8826949 -83.53177365
119
root  0.9147110886 36.89689035 -16.62384394 8.075130463 -1.104030013 -2.790159941
lowerback  -2.471829891 1.472079992 2.739069939
upperback  -1.735380054 1.912930012 1.910449982
thorax  -0.3703590035 0.9437950253 0.4641149938
lowerneck  -16.16909981 0.1365209967 -0.8623189926
upperneck  41.97750092 1.738700032 -2.523479939
head  18.61709976 0.2200279981 -0.6937710047
lclavicle  0 5.864150125e-015 -2.067359921e-014
lhumerus  -44.09540176 23.05410004 60.73360062
lradius  -2.516830677e-031 -2.476773583e-031 44.54040146
lwrist  -1.059337512e-030 -0 2.018460035
lhand  -7.08658227e-031 -4.749350071 21.43959999
lfingers  90 7.125020027 -90
lthumb  91.91387827 4.963561924 68.88283963
rclavicle  0 5.864150125e-015 -2.067359921e-014
rhumerus  -42.14609909 -14.24470043 -69.42070007
rradius  3.25550294e-031 1.36767856e-031 22.78790092
rwrist  3.531125038e-031 -0 -4.38725996
rhand  -3.557887175e-031 -7.03192997 12.70419979
rfingers  -90 -7.125020027 -90
rthumb  -80.01587675 -26.93606091 -68.76309662
rfemur  -33.19540024 15.53199959 21.77300072
rtibia  -0 0 32.16019821
rfoot  -0 -13.00160027 -17.24900055
rtoes  4.363490474 19.53724562 -102.8531972
lfemur  -0.2589409947 -2.299160004 -21.27619934
ltibia  -0 0 38.71350098
lfoot  -0 -8.251589775 22.89850044
ltoes  2.388354934 -19.86268233 -83.00155005
120
root  0.8481111113 36.9251101 -16.29233323 8.071160316 -0.9605990052 -3.027199984
lowerback  -2.345099926 1.454049945 2.977020025
upperback  -1.735249996 1.890329957 1.98142004
thorax  -0.4364860058 0.9301660061 0.4000760019
lowerneck  -16.4211998 0.1766469926 -0.9709950089
upperneck  42.08300018 1.74052 -2.265059948
head  18.74600029 0.237203002 -0.5517929792
lclavicle  0 5.864150125e-015 -2.067359921e-014
lhumerus  -44.67110062 23.59630013 60.55680084
lradius  -2.54125157e-031 -2.451710525e-031 43.97259903
lwrist  -7.062250077e-031 -3.531125038e-031 2.378420115
lhand  -3.543500326e-031 -4.789889812 21.59639931
lfingers  90 7.125020027 -90
lthumb  91.96863465 5.115084348 68.91675767
rclavicle  0 5.864150125e-015 -2.067359921e-014
rhumerus  -41.89189911 -14.54080009 -69.26850128
rradius  3.256425988e-031 1.365479338e-031 22.74920082
rwrist  3.531125038e-031 -1.765562519e-031 -4.391749859
rhand  -3.557478146e-031 -6.978320122 12.83469963
rfingers  -90 -7.125020027 -90
rthumb  -79.93480751 -27.05334165 -68.68102119
rfemur  -32.63619995 15.57159996 22.32900047
rtibia  -0 0 32.38940048
rfoot  -0 -13.58950043 -17.46649933
rtoes  4.824928419 19.43244779 -104.2365203
lfemur  -1.849969983 -1.815310001 -20.73579979
ltibia  -0 0 41.37730026
lfoot  -0 -7.358099937 23.43390083
ltoes  1.735223745 -19.92765433 -84.92067024
121
root  0.7954933512 36.96444354 -15.93648956 8.073120117 -0.84424299 -2.925349951
lowerback  -2.383209944 1.432600021 2.943789959
upperback  -1.76275003 1.861430049 1.924209952
thorax  -0.4428839982 0.9154930115 0.360006988
lowerneck  -16.41790009 0.2101390064 -0.9541890025
upperneck  42.13219833 1.759559989 -2.194849968
head  18.77440071 0.2575500011 -0.5178179741
lclavicle  0 5.864150125e-015 -2.067359921e-014
lhumerus  -45.22650146 23.8118 60.73809814
lradius  -2.545590707e-031 -2.447204934e-031 43.87110138
lwrist  -3.531125038e-031 -3.531125038e-031 3.322720051
lhand  -3.542480827e-031 -4.588900089 21.17630005
lfingers  90 7.125020027 -90
lthumb  91.8251126 4.69690238 68.7367434
rclavicle  0 5.864150125e-015 -2.067359921e-014
rhumerus  -41.87210083 -14.72379971 -69.16459656
rradius  3.2533482e-031 1.372796243e-031 22.87800026
rwrist  1.059337512e-030 -1.765562519e-031 -4.506090164
rhand  -3.558014634e-031 -7.048550129 12.97509956
rfingers  -90 -7.125020027 -90
rthumb  -79.91430525 -27.1898338 -68.73091377
rfemur  -31.95339966 15.47609997 22.51959991
rtibia  -0 0 32.49369812
rfoot  -0 -14.23180008 -17.55760002
rtoes  5.392322179 19.28808681 -105.9479648
lfemur  -3.383069992 -1.45381999 -20.68729973
ltibia  -0 0 44.00080109
lfoot  -0 -6.688350201 24.53720093
ltoes  1.221356474 -19.96419682 -86.42694755
